<svg width="136" height="136" viewBox="0 0 136 136" fill="none" xmlns="http://www.w3.org/2000/svg">
<path d="M21.75 55.6667H18.6666C15.3956 55.6667 12.2586 54.3673 9.94566 52.0544C7.63271 49.7414 6.33331 46.6044 6.33331 43.3334V18.6667C6.33331 15.3957 7.63271 12.2587 9.94566 9.94572C12.2586 7.63277 15.3956 6.33337 18.6666 6.33337H117.333C120.604 6.33337 123.741 7.63277 126.054 9.94572C128.367 12.2587 129.667 15.3957 129.667 18.6667V43.3334C129.667 46.6044 128.367 49.7414 126.054 52.0544C123.741 54.3673 120.604 55.6667 117.333 55.6667H114.25M21.75 80.3334H18.6666C15.3956 80.3334 12.2586 81.6328 9.94566 83.9457C7.63271 86.2587 6.33331 89.3957 6.33331 92.6667V117.333C6.33331 120.604 7.63271 123.741 9.94566 126.054C12.2586 128.367 15.3956 129.667 18.6666 129.667H117.333C120.604 129.667 123.741 128.367 126.054 126.054C128.367 123.741 129.667 120.604 129.667 117.333V92.6667C129.667 89.3957 128.367 86.2587 126.054 83.9457C123.741 81.6328 120.604 80.3334 117.333 80.3334H114.25M31 31H31.0616M31 105H31.0616M90.8154 76.634L85.2654 74.784M50.7321 61.2173L45.1821 59.3673M59.3673 90.817L61.2172 85.267M77.8679 90.8164L75.4012 84.6497M60.5994 51.3503L58.1327 45.1837M45.1821 77.8664L51.3488 75.3997M84.6512 60.5994L90.8179 58.1328M76.6339 45.1837L74.7839 50.7337M86.5 68C86.5 78.2173 78.2173 86.5 68 86.5C57.7827 86.5 49.5 78.2173 49.5 68C49.5 57.7828 57.7827 49.5 68 49.5C78.2173 49.5 86.5 57.7828 86.5 68Z" stroke="#EEEEEE" stroke-width="12" stroke-linecap="round" stroke-linejoin="round"/>
</svg>
