<svg width="148" height="148" viewBox="0 0 148 148" fill="none" xmlns="http://www.w3.org/2000/svg">
<path d="M24.6667 43.1667V24.6667C24.6667 21.3957 25.9661 18.2587 28.2791 15.9457C30.592 13.6328 33.729 12.3334 37 12.3334H89.4167L123.333 46.25V123.333C123.333 126.604 122.034 129.741 119.721 132.054C117.408 134.367 114.271 135.667 111 135.667H74M86.3334 12.3334V49.3334H123.333M43.1667 101.75L49.3334 135.667L30.8334 129.5L12.3334 135.667L18.5 101.75M30.8334 104.833C33.2628 104.833 35.6685 104.355 37.913 103.425C40.1575 102.495 42.197 101.133 43.9148 99.4149C45.6327 97.697 46.9954 95.6575 47.9251 93.413C48.8549 91.1685 49.3334 88.7628 49.3334 86.3334C49.3334 83.9039 48.8549 81.4983 47.9251 79.2537C46.9954 77.0092 45.6327 74.9698 43.9148 73.2519C42.197 71.534 40.1575 70.1713 37.913 69.2416C35.6685 68.3119 33.2628 67.8334 30.8334 67.8334C25.9269 67.8334 21.2213 69.7825 17.7519 73.2519C14.2825 76.7213 12.3334 81.4269 12.3334 86.3334C12.3334 91.2399 14.2825 95.9454 17.7519 99.4149C21.2213 102.884 25.9269 104.833 30.8334 104.833Z" stroke="#EEEEEE" stroke-width="12" stroke-linecap="round" stroke-linejoin="round"/>
</svg>
