<svg width="223" height="25" viewBox="0 0 223 25" fill="none" xmlns="http://www.w3.org/2000/svg">
<g clip-path="url(#clip0_1_53)">
<path d="M222.077 10.3792C222.077 11.467 222.068 12.5548 222.08 13.6426C222.089 14.5298 221.932 15.3917 221.607 16.2052C221.191 17.2415 220.474 18.0214 219.447 18.5174C218.544 18.9529 217.59 19.0589 216.612 19.0871C216.216 19.0985 215.82 19.1134 215.424 19.1266C215.406 19.5316 215.379 19.9365 215.373 20.342C215.365 21.0003 215.373 21.6593 215.37 22.3182C215.368 22.7207 215.231 22.8609 214.833 22.8621C213.806 22.8651 212.778 22.8651 211.75 22.8621C211.354 22.8609 211.214 22.7153 211.212 22.314C211.21 21.346 211.205 20.378 211.216 19.41C211.219 19.1697 211.157 19.0871 210.902 19.0805C210.107 19.0607 209.303 19.0757 208.522 18.9523C207.409 18.7762 206.424 18.2964 205.698 17.3805C204.914 16.3915 204.65 15.2498 204.543 14.0116C204.366 11.9696 204.473 9.9287 204.461 7.88845C204.456 7.05102 204.551 6.19982 204.712 5.37737C204.875 4.54773 205.258 3.76541 205.845 3.15561C206.529 2.44637 207.38 1.99891 208.379 1.81141C209.209 1.65567 210.037 1.6395 210.87 1.64788C211.12 1.65028 211.22 1.59876 211.218 1.32142C211.212 0.395337 211.233 0.385154 212.146 0.385154C213.014 0.385154 213.882 0.384555 214.75 0.385154C215.224 0.385154 215.359 0.517537 215.371 0.980578C215.386 1.64189 215.386 1.63411 216.037 1.64429C216.625 1.65387 217.221 1.61973 217.795 1.71677C219.165 1.94799 220.371 2.4919 221.176 3.7109C221.671 4.45967 221.942 5.2935 221.997 6.16508C222.085 7.56618 222.08 8.97327 222.114 10.378C222.101 10.378 222.089 10.378 222.077 10.3786V10.3792ZM215.371 10.4061C215.371 11.5029 215.371 12.5997 215.371 13.6971C215.371 14.1063 215.372 14.5148 215.371 14.9239C215.371 15.0635 215.384 15.1827 215.574 15.1803C216.003 15.1737 216.433 15.1947 216.861 15.1707C217.285 15.1467 217.678 14.8664 217.731 14.5585C217.806 14.1206 217.908 13.6768 217.902 13.2365C217.873 11.0177 218.018 8.79656 217.808 6.5796C217.746 5.93445 217.428 5.61098 216.775 5.60919C216.436 5.60799 216.097 5.60859 215.758 5.60919C215.373 5.60919 215.371 5.60979 215.371 6.00933C215.37 7.47513 215.371 8.94092 215.371 10.4073V10.4061ZM211.211 10.4187C211.211 8.92115 211.206 7.42421 211.216 5.92667C211.218 5.68287 211.153 5.59062 210.898 5.6026C210.489 5.62177 210.076 5.57504 209.672 5.62177C209.457 5.64692 209.219 5.76853 209.06 5.91828C208.75 6.2088 208.728 6.6395 208.725 7.02407C208.705 9.25002 208.709 11.476 208.723 13.7019C208.725 13.993 208.8 14.2925 208.892 14.5717C208.973 14.8173 209.125 15.0437 209.43 15.0689C209.913 15.1084 210.396 15.1348 210.878 15.1815C211.139 15.2066 211.221 15.118 211.218 14.8502C211.206 13.3731 211.212 11.8953 211.212 10.4181L211.211 10.4187Z" fill="#FF7D01"/>
<path d="M101.099 18.5708C101.51 18.5708 101.878 18.5678 102.246 18.5714C102.669 18.5755 102.832 18.7325 102.832 19.1476C102.835 20.9147 102.835 22.6812 102.832 24.4483C102.832 24.8521 102.698 24.9928 102.292 24.9958C101.224 25.0024 100.156 25.0012 99.0877 24.9958C98.6917 24.994 98.527 24.8275 98.5222 24.4268C98.515 23.8086 98.5204 23.1898 98.5204 22.5488H90.6817C90.6769 22.6393 90.6679 22.7351 90.6679 22.8304C90.6667 23.3695 90.6733 23.9086 90.6649 24.4477C90.6589 24.8161 90.4924 24.9928 90.1396 24.9952C89.0518 25.0018 87.9633 25.0018 86.8755 24.9952C86.5365 24.9934 86.361 24.8185 86.3598 24.4705C86.3538 22.6938 86.3532 20.9165 86.3598 19.1398C86.3616 18.7469 86.5532 18.6091 86.9558 18.6127C87.4434 18.6175 87.9376 18.6402 88.418 18.5737C89.1081 18.4785 89.3998 18.1251 89.4603 17.4308C89.48 17.2026 89.4777 16.972 89.4777 16.7426C89.4782 11.4119 89.4783 6.08124 89.4783 0.75058C89.4783 0.121612 89.5993 0.000610352 90.2288 0.000610352C93.6229 0.000610352 97.0169 0.000610352 100.411 0.000610352C100.967 0.000610352 101.099 0.132993 101.099 0.685886C101.099 6.50534 101.099 12.3254 101.099 18.1449V18.5696L101.099 18.5708ZM96.8312 18.5612V3.95353H93.7277C93.7277 4.0925 93.7277 4.21051 93.7277 4.32851C93.7271 8.53002 93.7307 12.7309 93.7205 16.9324C93.7193 17.4734 93.6468 18.0143 93.6067 18.5618H96.8312V18.5612Z" fill="black"/>
<path d="M79.5495 4.35244C78.5174 4.35244 77.5404 4.34944 76.5634 4.36022C76.5059 4.36082 76.4226 4.46805 76.3993 4.54053C76.3705 4.63158 76.3909 4.7382 76.3909 4.83764C76.3909 9.0703 76.3915 13.303 76.3885 17.5362C76.3879 18.3461 76.2759 19.1458 75.9961 19.9053C75.5151 21.2118 74.6316 22.1229 73.3054 22.6159C72.5572 22.8938 71.7952 22.9304 71.0189 22.928C70.5798 22.9268 70.1401 22.931 69.7011 22.919C69.2488 22.907 69.0691 22.7171 69.0679 22.2708C69.0661 21.3921 69.0667 20.5139 69.0679 19.6352C69.0685 19.0625 69.3926 18.8301 69.9521 18.9984C70.366 19.1224 71.3412 18.9547 71.7024 18.7414C72.0612 18.5294 72.1151 18.1951 72.1193 17.8441C72.1463 15.6703 72.1738 13.4958 72.1804 11.322C72.19 7.93756 72.1828 4.55371 72.1834 1.16926C72.1834 0.593003 72.3326 0.443848 72.9094 0.443848C76.3034 0.443848 79.6981 0.443848 83.0921 0.443848C83.6438 0.443848 83.7576 0.557062 83.7576 1.10816C83.7576 8.14602 83.7576 15.1839 83.7576 22.2223C83.7576 22.7375 83.6354 22.8621 83.128 22.8627C82.1397 22.8639 81.1513 22.8639 80.1629 22.8627C79.6759 22.8621 79.5495 22.7321 79.5495 22.2361C79.5495 16.4262 79.5495 10.6158 79.5495 4.80589C79.5495 4.66872 79.5495 4.53154 79.5495 4.35184V4.35244Z" fill="#FF7D01"/>
<path d="M126.913 13.258H123.891V13.6564C123.891 16.3711 123.891 19.0859 123.891 21.8012C123.891 22.3919 123.76 22.5236 123.173 22.5236C122.215 22.5236 121.257 22.5248 120.298 22.5236C119.799 22.523 119.648 22.3769 119.648 21.8899C119.648 14.8035 119.648 7.71652 119.648 0.630145C119.648 0.155723 119.801 0.00297307 120.274 0.00177504C121.262 -2.20171e-05 122.25 -2.20171e-05 123.238 0.00177504C123.743 0.00297307 123.891 0.153926 123.891 0.669081C123.892 3.4042 123.891 6.13871 123.891 8.87382V9.27037H126.913C126.913 9.14997 126.913 9.03436 126.913 8.91875C126.913 6.18364 126.913 3.44912 126.913 0.714007C126.913 0.12697 127.041 0.00117602 127.639 0.00117602C128.627 0.00117602 129.615 -2.20171e-05 130.603 0.00117602C131.077 0.00177504 131.226 0.153326 131.226 0.631343C131.226 7.71772 131.226 14.8047 131.226 21.8911C131.226 22.3709 131.077 22.5224 130.605 22.523C129.587 22.5248 128.569 22.5254 127.551 22.523C127.062 22.5218 126.913 22.3685 126.913 21.8725C126.913 19.1278 126.913 16.3831 126.913 13.6378C126.913 13.5192 126.913 13.4006 126.913 13.258Z" fill="black"/>
<path d="M138.986 9.27519H142.008C142.008 9.16018 142.008 9.04576 142.008 8.93135C142.008 6.18665 142.008 3.44196 142.008 0.696657C142.008 0.14017 142.144 0.00179705 142.691 0.00119804C143.689 0 144.687 0 145.686 0.00119804C146.176 0.00179705 146.321 0.149754 146.321 0.648736C146.321 7.72553 146.321 14.8017 146.321 21.8785C146.321 22.3757 146.176 22.5225 145.683 22.5231C144.694 22.5243 143.707 22.5237 142.718 22.5231C142.141 22.5231 142.008 22.3919 142.008 21.8246C142.008 19.0895 142.008 16.355 142.008 13.6199C142.008 13.5031 142.008 13.3862 142.008 13.2551H138.986V13.6432C138.986 16.358 138.986 19.0727 138.986 21.7881C138.986 22.3955 138.859 22.5231 138.251 22.5237C137.292 22.5237 136.335 22.5249 135.376 22.5237C134.898 22.5231 134.744 22.3721 134.744 21.9025C134.743 14.8059 134.743 7.70936 134.744 0.612795C134.744 0.159339 134.901 0.00299509 135.356 0.00179705C136.354 -0.000599018 137.352 -0.000599018 138.35 0.00179705C138.835 0.00299509 138.986 0.15874 138.986 0.656523C138.987 3.39164 138.986 6.12615 138.986 8.86127C138.986 8.99006 138.986 9.11825 138.986 9.27519H138.986Z" fill="black"/>
<path d="M4.2081 4.35187C4.2081 4.53158 4.2081 4.66875 4.2081 4.80593C4.2081 10.596 4.2081 16.3861 4.2081 22.1762C4.2081 22.7531 4.10087 22.8633 3.536 22.8633C2.55781 22.8633 1.57961 22.8645 0.600815 22.8633C0.131185 22.8621 0.000599018 22.7291 0 22.2547C0 15.1863 0 8.11849 0 1.05069C0 0.578061 0.132982 0.445079 0.603211 0.44448C4.05715 0.443881 7.51108 0.443881 10.9656 0.44448C11.4406 0.44448 11.5742 0.575665 11.5742 1.0447C11.5742 8.1125 11.5742 15.1803 11.5742 22.2481C11.5742 22.7333 11.4442 22.8615 10.9476 22.8627C9.95927 22.8645 8.97089 22.8633 7.98251 22.8627C7.39907 22.8627 7.30083 22.7663 7.30083 22.1924C7.30083 16.4221 7.30083 10.6523 7.30083 4.882C7.30083 4.77238 7.32359 4.65438 7.29064 4.55494C7.26429 4.47527 7.17024 4.36086 7.10555 4.36026C6.1585 4.34768 5.21085 4.35187 4.2075 4.35187H4.2081Z" fill="#FF7D01"/>
<path d="M14.7946 11.5928C14.7946 9.56628 14.7999 7.53981 14.7928 5.51333C14.7874 4.04274 15.2228 2.7255 16.2166 1.64188C16.567 1.25911 17.0469 0.973973 17.5081 0.718192C18.5761 0.126363 19.749 0.118576 20.9315 0.176081C21.4712 0.202438 21.9977 0.251558 22.5105 0.434857C23.6672 0.848179 24.5909 1.54124 25.1725 2.64104C25.6631 3.56832 25.8937 4.55849 25.8961 5.61277C25.9051 9.46385 25.9423 13.3149 25.9411 17.1654C25.9411 17.9142 25.8752 18.6702 25.6619 19.4016C25.3013 20.6373 24.6556 21.6587 23.5222 22.3302C22.6758 22.8315 21.7701 23.1167 20.7811 23.0987C20.2043 23.0885 19.6232 23.0981 19.0524 23.0298C18.4516 22.9579 17.8807 22.7501 17.3416 22.4613C16.6539 22.0923 16.0866 21.591 15.6889 20.9225C15.4577 20.5331 15.2588 20.1174 15.1024 19.6921C14.8209 18.9271 14.7802 18.1244 14.7874 17.3122C14.8035 15.4055 14.7928 13.4988 14.7928 11.5922H14.7946V11.5928ZM21.6833 11.6371C21.6833 9.57107 21.6994 7.50446 21.6719 5.43845C21.6653 4.93947 21.5623 4.43689 20.9734 4.20687C20.0749 3.85525 19.0062 4.16913 19.005 5.39353C19.0009 9.54592 18.9949 13.6983 19.0086 17.8513C19.0128 19.0667 19.9497 19.3333 20.8416 19.0984C21.0705 19.0379 21.3346 18.8576 21.4436 18.6564C21.5934 18.3808 21.6713 18.0334 21.6743 17.7165C21.6934 15.6906 21.6845 13.6642 21.6839 11.6377L21.6833 11.6371Z" fill="#FF7D01"/>
<path d="M59.1338 19.0278C59.017 19.9341 58.9008 20.8662 58.7732 21.7965C58.7397 22.0403 58.6786 22.2811 58.6133 22.5189C58.5498 22.7513 58.3701 22.8579 58.1407 22.8591C57.1529 22.8639 56.1645 22.8681 55.1767 22.8573C54.776 22.8531 54.6148 22.553 54.6993 22.0768C54.7892 21.5706 54.8485 21.0591 54.9365 20.5529C55.0521 19.891 55.1965 19.2339 55.3061 18.5714C55.4511 17.692 55.5685 16.8085 55.7086 15.9285C55.8273 15.1869 55.9722 14.4495 56.0866 13.7073C56.2304 12.7777 56.3448 11.8438 56.4916 10.9147C56.6012 10.2223 56.7551 9.53638 56.8666 8.84392C56.9929 8.0622 57.0888 7.27629 57.208 6.49337C57.2871 5.97522 57.3895 5.46067 57.4722 4.94311C57.5686 4.33751 57.6447 3.72831 57.7477 3.1239C57.8807 2.34398 58.0274 1.56645 58.176 0.789527C58.2227 0.546326 58.4042 0.445691 58.636 0.445092C60.2426 0.442696 61.8498 0.439701 63.4563 0.446889C63.7798 0.448087 63.9409 0.652352 63.9901 0.975223C64.1338 1.91388 64.2992 2.84835 64.4483 3.78581C64.5789 4.60707 64.6921 5.43072 64.8239 6.25137C64.9545 7.06124 65.1072 7.86812 65.2354 8.67859C65.3678 9.51961 65.4774 10.3642 65.6056 11.2058C65.7817 12.3596 65.9626 13.5127 66.1477 14.6652C66.2999 15.6122 66.4664 16.5569 66.6186 17.5039C66.727 18.1778 66.8168 18.8547 66.9247 19.5292C67.0714 20.4469 67.2254 21.364 67.3817 22.2799C67.4392 22.6159 67.2919 22.8513 66.9564 22.8549C65.8386 22.8675 64.7209 22.8627 63.6031 22.8585C63.3389 22.8573 63.1754 22.7184 63.1371 22.4488C63.0155 21.5964 62.8963 20.7434 62.7717 19.8916C62.7345 19.6376 62.695 19.3824 62.6291 19.1356C62.6105 19.0668 62.4955 18.9763 62.4242 18.9757C61.3568 18.9691 60.2893 18.9757 59.2219 18.9799C59.2045 18.9799 59.1871 18.9973 59.1314 19.0272L59.1338 19.0278ZM59.7143 15.2109H62.0355C61.6635 12.7142 61.2957 10.2426 60.9273 7.77048L60.8291 7.76808C60.4583 10.2426 60.0881 12.7172 59.7143 15.2103V15.2109Z" fill="#FF7D01"/>
<path d="M112.286 18.5839H108.831C108.727 19.283 108.623 19.9796 108.519 20.6757C108.447 21.1489 108.374 21.6221 108.303 22.0954C108.259 22.3907 108.09 22.5279 107.793 22.5273C106.814 22.5243 105.836 22.5303 104.857 22.5243C104.476 22.5219 104.307 22.3014 104.369 21.9151C105.108 17.2871 105.849 12.6596 106.59 8.03164C106.992 5.52056 107.392 3.01007 107.795 0.498993C107.856 0.117419 107.988 0.00300642 108.375 0.0024074C109.922 1.1334e-05 111.469 1.1334e-05 113.017 0.0024074C113.444 0.0024074 113.588 0.124607 113.656 0.54931C114.023 2.84355 114.386 5.13838 114.753 7.43262C115.201 10.239 115.652 13.0448 116.102 15.8506C116.427 17.8789 116.755 19.9066 117.076 21.9354C117.138 22.332 116.972 22.5237 116.571 22.5249C115.503 22.5291 114.435 22.5279 113.366 22.5249C112.991 22.5243 112.88 22.4392 112.823 22.0744C112.661 21.0399 112.509 20.0036 112.353 18.9685C112.334 18.8421 112.31 18.7169 112.286 18.5833L112.286 18.5839ZM110.576 7.27448C110.556 7.27688 110.535 7.27867 110.515 7.28107C110.141 9.77777 109.769 12.2745 109.394 14.782H111.702C111.325 12.2679 110.951 9.77119 110.576 7.27448Z" fill="black"/>
<path d="M175.328 6.97196C175.542 6.32263 175.757 5.67389 175.97 5.02396C176.475 3.48988 176.984 1.95699 177.482 0.42051C177.587 0.0958423 177.809 -0.00179752 178.119 -0.000599489C179.028 0.00299462 179.936 -0.000599489 180.845 0.00119756C181.417 0.0023956 181.59 0.239607 181.408 0.776326C180.291 4.08171 179.171 7.38649 178.062 10.6943C178.01 10.8482 178.009 11.0501 178.062 11.204C179.245 14.6975 180.438 18.1874 181.63 21.6784C181.846 22.3104 181.692 22.5237 181.015 22.5237C180.027 22.5237 179.039 22.5237 178.05 22.5237C177.493 22.5237 177.418 22.4697 177.243 21.9312C176.522 19.7131 175.801 17.4943 175.081 15.2755C175.05 15.1815 175.017 15.0881 174.956 14.9101C174.896 15.0635 174.86 15.1456 174.833 15.2306C174.092 17.4841 173.352 19.7382 172.612 21.9923C172.461 22.4518 172.364 22.5231 171.88 22.5237C170.982 22.5237 170.083 22.5249 169.185 22.5237C168.611 22.5231 168.44 22.2882 168.624 21.7503C169.822 18.2407 171.023 14.7322 172.213 11.2196C172.268 11.0579 172.269 10.8452 172.215 10.6835C171.109 7.38409 169.993 4.08889 168.879 0.7925C168.688 0.229423 168.849 0.00179658 169.438 0.00119756C170.456 -4.71075e-07 171.475 0.000598546 172.493 0.00119756C172.959 0.00119756 173.051 0.0700846 173.198 0.52414C173.886 2.66862 174.575 4.8137 175.263 6.95819L175.327 6.97137L175.328 6.97196Z" fill="black"/>
<path d="M191.747 11.6683C191.747 8.16583 191.747 4.66278 191.747 1.16032C191.747 0.60084 191.901 0.444496 192.452 0.444496C194.288 0.444496 196.125 0.412748 197.96 0.459472C198.749 0.479838 199.506 0.732624 200.228 1.09743C200.819 1.39634 201.257 1.83841 201.641 2.34278C202.162 3.02806 202.434 3.82595 202.537 4.67476C202.603 5.22406 202.645 5.77875 202.656 6.33164C202.675 7.31942 202.645 8.3078 202.666 9.29498C202.686 10.2265 202.498 11.1178 202.137 11.9612C201.626 13.158 200.755 13.9877 199.5 14.4202C198.847 14.6454 198.187 14.7143 197.51 14.7221C197.121 14.7269 196.732 14.7383 196.343 14.7209C196.079 14.7089 196.005 14.8023 196.006 15.0635C196.015 17.4386 196.012 19.8137 196.012 22.1888C196.012 22.7447 195.899 22.8615 195.355 22.8621C194.357 22.8627 193.359 22.8633 192.361 22.8621C191.874 22.8615 191.746 22.7297 191.746 22.2368C191.746 18.7139 191.746 15.1917 191.746 11.6689L191.747 11.6683ZM196.012 7.59257C196.012 8.58994 196.017 9.5879 196.009 10.5853C196.007 10.7937 196.076 10.8716 196.284 10.8626C196.562 10.8506 196.844 10.8818 197.121 10.8554C198.159 10.7566 198.377 10.49 198.432 9.55256C198.51 8.24011 198.524 6.91449 198.426 5.60503C198.363 4.76821 198.278 4.5256 197.407 4.39622C197.046 4.3429 196.672 4.37585 196.306 4.34889C196.06 4.33092 196.006 4.43276 196.008 4.65918C196.018 5.63678 196.012 6.61438 196.013 7.59197L196.012 7.59257Z" fill="#FF7D01"/>
<path d="M29.1135 11.6599C29.1135 8.16642 29.1135 4.67295 29.1135 1.17948C29.1135 0.585857 29.2578 0.44389 29.8592 0.44389C31.6958 0.44389 33.5342 0.392973 35.3678 0.463059C36.4598 0.50499 37.4847 0.880574 38.3353 1.62695C39.2536 2.43203 39.734 3.46593 39.9018 4.65199C39.9778 5.18931 40.0114 5.73561 40.0228 6.27892C40.0419 7.19662 40.0006 8.11611 40.0366 9.0332C40.0665 9.79875 39.9671 10.5511 39.7652 11.2705C39.4879 12.2583 38.9709 13.1341 38.1221 13.763C37.2751 14.3902 36.3101 14.6831 35.2636 14.7143C34.8047 14.7281 34.3453 14.7233 33.8864 14.7245C33.2898 14.7263 33.3809 14.7149 33.3803 15.2163C33.3779 17.5416 33.3791 19.8676 33.3791 22.193C33.3791 22.7453 33.2653 22.8603 32.7166 22.8609C31.7282 22.8615 30.7404 22.8621 29.752 22.8609C29.2393 22.8609 29.1141 22.7357 29.1141 22.229C29.1141 18.7055 29.1141 15.1821 29.1141 11.6593L29.1135 11.6599ZM33.3791 7.59257C33.3791 8.58993 33.3839 9.58729 33.3755 10.5847C33.3737 10.7925 33.442 10.871 33.6498 10.862C33.9284 10.85 34.2105 10.8812 34.4873 10.8548C35.5176 10.7578 35.7452 10.49 35.7985 9.55135C35.874 8.23891 35.8812 6.91508 35.7931 5.60443C35.741 4.8281 35.647 4.50583 34.7736 4.39441C34.4202 4.34948 34.0578 4.37884 33.7019 4.34769C33.4264 4.32373 33.3701 4.43634 33.3737 4.68973C33.3869 5.65714 33.3791 6.62455 33.3791 7.59197V7.59257Z" fill="#FF7D01"/>
<path d="M154.022 8.20715C154.789 8.20715 155.511 8.15084 156.221 8.21913C157.624 8.35451 158.843 8.88344 159.693 10.0779C160.234 10.8374 160.536 11.7018 160.61 12.6105C160.766 14.51 160.825 16.4197 160.566 18.315C160.372 19.734 159.748 20.9393 158.49 21.7288C157.612 22.2799 156.625 22.4931 155.609 22.5117C153.852 22.5434 152.095 22.5255 150.339 22.5225C149.924 22.5219 149.775 22.3482 149.775 21.8929C149.774 19.2776 149.775 16.6629 149.775 14.0476C149.775 9.60585 149.775 5.16474 149.775 0.72302C149.775 0.124601 149.897 0.00120385 150.488 0.00120385C151.447 0.00120385 152.404 5.81163e-06 153.363 0.00120385C153.873 0.00240188 154.022 0.151557 154.022 0.662519C154.024 3.02804 154.022 5.39356 154.022 7.75908V8.20655L154.022 8.20715ZM154.038 18.5707C154.372 18.5707 154.68 18.5707 154.987 18.5707C156.112 18.5696 156.434 18.2676 156.448 17.1397C156.463 15.9327 156.454 14.7257 156.448 13.5186C156.447 13.3204 156.422 13.1203 156.387 12.925C156.306 12.4686 156.023 12.1756 155.569 12.1379C155.067 12.096 154.559 12.1283 154.037 12.1283V18.5702L154.038 18.5707Z" fill="black"/>
<path d="M49.3794 13.5079C49.3794 16.4125 49.3794 19.3171 49.3794 22.2212C49.3794 22.7525 49.268 22.8621 48.7271 22.8621C47.7591 22.8621 46.7905 22.8627 45.8224 22.8621C45.2803 22.8621 45.1677 22.7441 45.1677 22.187C45.1677 16.3879 45.1677 10.5889 45.1677 4.78976C45.1677 4.49904 45.0234 4.35348 44.7346 4.35308C43.9062 4.35308 43.0777 4.35428 42.2493 4.35308C41.8138 4.35248 41.6826 4.2219 41.6814 3.78102C41.679 2.86273 41.6784 1.94443 41.6814 1.02614C41.6832 0.581666 41.8258 0.44509 42.2805 0.44509C45.6439 0.444491 49.008 0.444491 52.3715 0.44509C52.828 0.44509 52.9669 0.580468 52.9675 1.02793C52.9699 1.94623 52.9699 2.86452 52.9675 3.78282C52.9663 4.21291 52.8262 4.35128 52.3895 4.35248C51.5011 4.35488 50.6128 4.36446 49.7244 4.34709C49.4423 4.3417 49.3734 4.43694 49.374 4.7047C49.3818 7.63929 49.3788 10.5739 49.3788 13.5079H49.3794Z" fill="#FF7D01"/>
<path d="M161.534 11.2627C161.534 7.74827 161.534 4.23443 161.534 0.719998C161.534 0.128768 161.66 0.00297387 162.256 0.00297387C163.225 0.00297387 164.193 0.00177583 165.161 0.00297387C165.634 0.00357288 165.785 0.155124 165.785 0.634937C165.785 7.72311 165.785 14.8113 165.785 21.8995C165.785 22.3775 165.637 22.5224 165.156 22.523C164.158 22.5242 163.16 22.5248 162.161 22.523C161.685 22.5218 161.535 22.3709 161.535 21.8947C161.534 18.3503 161.535 14.8065 161.535 11.2621L161.534 11.2627Z" fill="black"/>
<path d="M188.176 20.8733C188.176 21.3723 188.18 21.8713 188.174 22.3703C188.171 22.7087 188.02 22.8585 187.676 22.8603C186.658 22.8645 185.64 22.8651 184.622 22.8603C184.225 22.8585 184.082 22.7111 184.081 22.3128C184.078 21.3346 184.078 20.3564 184.081 19.3782C184.082 18.9828 184.226 18.8331 184.624 18.8307C185.642 18.8241 186.66 18.8253 187.678 18.8295C188.041 18.8313 188.172 18.9715 188.175 19.3458C188.18 19.855 188.177 20.3642 188.176 20.8727V20.8733Z" fill="#FF7D01"/>
</g>
<defs>
<clipPath id="clip0_1_53">
<rect width="222.114" height="25" fill="white"/>
</clipPath>
</defs>
</svg>
